# xmcd CD database file
#
# Track frame offsets:
#	150
#	13443
#	25670
#	39800
#	52960
#	66365
#	76535
#	89563
#	103135
#	115998
#	128945
#	141695
#
# Disc length: 2038 seconds
#
# Revision: 3
# Processed by: cddbd v1.5.2PL0 Copyright (c) Steve Scherf et al.
# Submitted via: CDex 1.99.1
#
DISCID=a307f40c
DTITLE=Howlin' Wolf (Chester Arthur Burnett 1910-1976) - Howlin' Wolf 1959 - Moanin' At Moonlight
DYEAR=1959
DGENRE=Blues
TTITLE0=Moanin' At Midnight
TTITLE1=How Many More Years
TTITLE2=Smokestack Lightnin'
TTITLE3=Baby How Long
TTITLE4=No Place To Go
TTITLE5=All Night Boogie
TTITLE6=Evil
TTITLE7=I'm Leavin' You
TTITLE8=Moanin' For My Baby
TTITLE9=I Asked For Water (She Gave Me Gasoline)
TTITLE10=Forty Four
TTITLE11=Somebody In My Home
EXTD=YEAR: 1959
EXTT0=
EXTT1=
EXTT2=
EXTT3=
EXTT4=
EXTT5=
EXTT6=
EXTT7=
EXTT8=
EXTT9=
EXTT10=
EXTT11=
PLAYORDER=
